<?xml version="1.0" encoding="UTF-8" standalone="no"?><!-- Generator: Gravit.io --><svg xmlns="http://www.w3.org/2000/svg" xmlns:xlink="http://www.w3.org/1999/xlink" style="isolation:isolate" viewBox="0 0 60 100" width="60pt" height="100pt"><defs><clipPath id="_clipPath_45MkIkIi17Fo0A5sK66h8QKBCPRksb6n"><rect width="60" height="100"/></clipPath></defs><g clip-path="url(#_clipPath_45MkIkIi17Fo0A5sK66h8QKBCPRksb6n)"><path d=" M 2.918 57.057 C 1.115 55.248 0 52.753 0 50 L 0 50 L 0 50 L 0 50 L 0 50 L 0 50 L 0 50 C 0 47.247 1.115 44.752 2.918 42.943 L 2.917 42.941 L 42.929 2.929 L 42.93 2.93 C 44.74 1.12 47.24 0 50 0 C 55.519 0 60 4.481 60 10 C 60 12.76 58.88 15.26 57.07 17.07 L 57.07 17.07 L 57.071 17.071 L 24.142 50 L 57.071 82.929 L 57.07 82.93 L 57.07 82.93 C 58.88 84.74 60 87.24 60 90 C 60 95.519 55.519 100 50 100 C 47.24 100 44.74 98.88 42.93 97.07 L 42.929 97.071 L 2.917 57.059 L 2.918 57.057 Z " fill-rule="evenodd" fill="rgb(33,149,243)"/></g></svg>