<?xml version="1.0" encoding="UTF-8" standalone="no"?><!-- Generator: Gravit.io --><svg xmlns="http://www.w3.org/2000/svg" xmlns:xlink="http://www.w3.org/1999/xlink" style="isolation:isolate" viewBox="0 0 139 173.3" width="139pt" height="173.3pt"><defs><clipPath id="_clipPath_42HwnAjyfhNAqo8J0oChngibmvPfAuFB"><rect width="139" height="173.3"/></clipPath></defs><g clip-path="url(#_clipPath_42HwnAjyfhNAqo8J0oChngibmvPfAuFB)"><path d=" M 0.001 75.459 C -0.066 68.023 9.295 53.567 25 35 C 40.733 16.4 64.4 -9.053 65.577 4 Q 66.755 17.053 67 41.567 L 74 41.567 L 74 75.5 Q 74 75.5 74 75.5 L 74 109.352 L 67 109.352 Q 66.755 133.866 65.577 146.919 C 64.4 159.972 40.733 134.519 25 115.919 C 9.295 97.352 -0.066 82.896 0.001 75.459 Z " fill-rule="evenodd" fill="rgb(56,55,53)"/><path d=" M 61 37.019 C 104.211 37.942 139 72.534 139 115.009 C 139 138.383 128.465 159.37 111.787 173.67 C 114.543 168.514 116.059 162.888 116.059 157 C 116.059 133.458 91.823 114.114 61 112.162 L 61 37.019 Z " fill-rule="evenodd" fill="rgb(56,55,53)"/></g></svg>