<?xml version="1.0" encoding="UTF-8" standalone="no"?><!-- Generator: Gravit.io --><svg xmlns="http://www.w3.org/2000/svg" xmlns:xlink="http://www.w3.org/1999/xlink" style="isolation:isolate" viewBox="0 0 95 100" width="95pt" height="100pt"><defs><clipPath id="_clipPath_H08OQXLtdkr5cXphxiatFRnc5m685p9r"><rect width="95" height="100"/></clipPath></defs><g clip-path="url(#_clipPath_H08OQXLtdkr5cXphxiatFRnc5m685p9r)"><clipPath id="_clipPath_vu7RjL4zcBK85un0NHqnOptuSt0Si01Z"><rect x="0" y="0" width="60" height="100" transform="matrix(1,0,0,1,0,0)" fill="rgb(255,255,255)"/></clipPath><g clip-path="url(#_clipPath_vu7RjL4zcBK85un0NHqnOptuSt0Si01Z)"><g><path d=" M 2.918 57.057 C 1.115 55.248 0 52.753 0 50 L 0 50 L 0 50 L 0 50 L 0 50 L 0 50 L 0 50 C 0 47.247 1.115 44.752 2.918 42.943 L 2.917 42.941 L 42.929 2.929 L 42.93 2.93 C 44.74 1.12 47.24 0 50 0 C 55.519 0 60 4.481 60 10 C 60 12.76 58.88 15.26 57.07 17.07 L 57.07 17.07 L 57.071 17.071 L 24.142 50 L 57.071 82.929 L 57.07 82.93 L 57.07 82.93 C 58.88 84.74 60 87.24 60 90 C 60 95.519 55.519 100 50 100 C 47.24 100 44.74 98.88 42.93 97.07 L 42.929 97.071 L 2.917 57.059 L 2.918 57.057 Z " fill-rule="evenodd" fill="rgb(33,149,243)"/></g></g><clipPath id="_clipPath_EmWy0bXvESra7V6zKb6emkve3iyznpSR"><rect x="35" y="0" width="60" height="100" transform="matrix(1,0,0,1,0,0)" fill="rgb(255,255,255)"/></clipPath><g clip-path="url(#_clipPath_EmWy0bXvESra7V6zKb6emkve3iyznpSR)"><g><path d=" M 37.918 57.057 C 36.115 55.248 35 52.753 35 50 L 35 50 L 35 50 L 35 50 L 35 50 L 35 50 L 35 50 C 35 47.247 36.115 44.752 37.918 42.943 L 37.917 42.941 L 77.929 2.929 L 77.93 2.93 C 79.74 1.12 82.24 0 85 0 C 90.519 0 95 4.481 95 10 C 95 12.76 93.88 15.26 92.07 17.07 L 92.07 17.07 L 92.071 17.071 L 59.142 50 L 92.071 82.929 L 92.07 82.93 L 92.07 82.93 C 93.88 84.74 95 87.24 95 90 C 95 95.519 90.519 100 85 100 C 82.24 100 79.74 98.88 77.93 97.07 L 77.929 97.071 L 37.917 57.059 L 37.918 57.057 Z " fill-rule="evenodd" fill="rgb(33,149,243)"/></g></g></g></svg>