<?xml version="1.0" encoding="UTF-8" standalone="no"?><!-- Generator: Gravit.io --><svg xmlns="http://www.w3.org/2000/svg" xmlns:xlink="http://www.w3.org/1999/xlink" style="isolation:isolate" viewBox="0 0 100 100" width="100pt" height="100pt"><defs><clipPath id="_clipPath_MPn6hv005EtUW47j0x6SXOWtjoRS49LR"><rect width="100" height="100"/></clipPath></defs><g clip-path="url(#_clipPath_MPn6hv005EtUW47j0x6SXOWtjoRS49LR)"><path d=" M 91.12 98.152 L 57.623 64.777 C 51.601 69.311 44.112 72 36 72 C 16.131 72 0 55.869 0 36 L 0 36 C 0 16.131 16.131 0 36 0 C 55.869 0 72 16.131 72 36 C 72 44.187 69.261 51.739 64.651 57.79 L 64.651 57.79 L 97.933 90.951 C 99.185 91.86 100 93.336 100 95 C 100 97.76 97.76 100 95 100 C 93.825 100 92.744 99.594 91.89 98.914 L 91.888 98.917 L 91.862 98.892 C 91.59 98.672 91.341 98.424 91.12 98.152 Z  M 10 36 C 10 21.65 21.65 10 36 10 C 50.35 10 62 21.65 62 36 C 62 50.35 50.35 62 36 62 C 21.65 62 10 50.35 10 36 L 10 36 L 10 36 Z " fill-rule="evenodd" fill="rgb(33,149,243)"/></g></svg>