<?xml version="1.0" encoding="UTF-8" standalone="no"?><!-- Generator: Gravit.io --><svg xmlns="http://www.w3.org/2000/svg" xmlns:xlink="http://www.w3.org/1999/xlink" style="isolation:isolate" viewBox="0 0 89.2 100" width="89.2pt" height="100pt"><defs><clipPath id="_clipPath_WvNWIpJDQmvRDrZ7ENtHOhw5WUjPpwrE"><rect width="89.2" height="100"/></clipPath></defs><g clip-path="url(#_clipPath_WvNWIpJDQmvRDrZ7ENtHOhw5WUjPpwrE)"><g><path d=" M 62.164 37.329 L 62.164 68.356 Q 58.631 71.122 53.988 74.364 C 55.75 76.354 57.498 77.849 59.229 78.859 C 56.317 81.759 51.388 83.648 45.811 83.648 C 40.235 83.648 35.306 81.759 32.394 78.859 C 34.125 77.849 35.872 76.354 37.635 74.364 Q 32.992 71.122 29.459 68.356 L 29.459 37.329 C 29.459 37.328 29.459 37.328 29.459 37.328 L 29.459 13.332 L 18.004 13.332 C 17.996 13.321 17.989 13.31 17.982 13.299 C 16.629 11.247 3.089 1.689 2.728 1.888 Q 2.367 2.088 9.954 11.587 C 10.646 12.643 11.424 13.492 10.756 14.44 C 8.141 18.153 -0.417 21.478 2.728 32.697 Q 3.64 36.006 9.151 40.684 C 9.85 41.277 10.637 41.866 11.471 42.425 L 11.471 53.967 Q 9.252 53.565 6.566 53.651 C 8.175 58.071 9.811 61.944 11.471 65.27 L 11.471 72.61 L 11.471 72.61 C 11.471 87.727 26.859 100 45.811 100 C 64.764 100 80.152 87.727 80.152 72.61 L 80.152 72.61 L 80.152 65.27 C 81.812 61.944 83.448 58.071 85.057 53.651 Q 82.371 53.565 80.152 53.967 L 80.152 42.425 C 80.985 41.866 81.773 41.277 82.472 40.684 Q 87.983 36.006 88.895 32.697 C 92.04 21.478 83.482 18.153 80.867 14.44 C 80.199 13.492 80.977 12.643 81.669 11.587 Q 89.256 2.088 88.895 1.888 C 88.534 1.689 74.994 11.247 73.641 13.299 C 73.634 13.31 73.626 13.321 73.619 13.332 L 62.164 13.332 L 62.164 37.328 C 62.164 37.328 62.164 37.328 62.164 37.329 Z " fill-rule="evenodd" fill="rgb(48,87,149)" fill-opacity="0.6"/><g><path d=" M 9.836 70.974 C 9.836 86.092 25.223 98.365 44.176 98.365 C 63.129 98.365 78.516 86.092 78.516 70.974 L 78.516 70.974 L 78.516 70.974 L 78.516 70.974 L 78.516 11.697 L 60.529 11.697 L 60.529 70.974 L 60.529 70.974 C 60.529 77.066 53.201 82.012 44.176 82.012 C 35.151 82.012 27.824 77.066 27.824 70.974 L 27.824 70.974 L 27.824 70.974 L 27.824 11.697 L 9.836 11.697 L 9.836 70.974 Z " fill-rule="evenodd" fill="rgb(63,119,208)" vector-effect="non-scaling-stroke" stroke-width="0.5" stroke="rgb(23,19,26)" stroke-linejoin="miter" stroke-linecap="square" stroke-miterlimit="3"/><linearGradient id="_lgradient_4" x1="0.5947368421052626" y1="0.9671311583473532" x2="0.13300900650908098" y2="-0.1470748195861562" gradientTransform="matrix(-31.07,0,0,26.741,83.422,52.001)" gradientUnits="userSpaceOnUse"><stop offset="0%" stop-opacity="1" style="stop-color:rgb(240,232,0)"/><stop offset="55.56930459631649%" stop-opacity="1" style="stop-color:rgb(198,13,13)"/></linearGradient><path d=" M 70.476 57.194 Q 74.193 51.719 83.422 52.016 C 73.881 78.214 63.421 85.222 52.352 72.729 Q 66.763 62.666 70.476 57.194 Z " fill="url(#_lgradient_4)" vector-effect="non-scaling-stroke" stroke-width="0.5" stroke="rgb(23,19,26)" stroke-linejoin="miter" stroke-linecap="square" stroke-miterlimit="3"/><linearGradient id="_lgradient_5" x1="0.5947368421052626" y1="0.9671311583473532" x2="0.13300900650908098" y2="-0.1470748195861562" gradientTransform="matrix(31.07,0,0,26.741,4.93,52.001)" gradientUnits="userSpaceOnUse"><stop offset="0%" stop-opacity="1" style="stop-color:rgb(240,232,0)"/><stop offset="55.56930459631649%" stop-opacity="1" style="stop-color:rgb(198,13,13)"/></linearGradient><path d=" M 17.876 57.194 Q 14.16 51.719 4.93 52.016 C 14.471 78.214 24.931 85.222 36 72.729 Q 21.59 62.666 17.876 57.194 Z " fill="url(#_lgradient_5)" vector-effect="non-scaling-stroke" stroke-width="0.5" stroke="rgb(23,19,26)" stroke-linejoin="miter" stroke-linecap="square" stroke-miterlimit="3"/><linearGradient id="_lgradient_6" x1="0.2833217980217906" y1="0.6316550925925929" x2="1.5708262662050103" y2="1.334780092592593" gradientTransform="matrix(27.416,0,0,44.152,0.408,0.25)" gradientUnits="userSpaceOnUse"><stop offset="0%" stop-opacity="1" style="stop-color:rgb(170,3,3)"/><stop offset="100%" stop-opacity="1" style="stop-color:rgb(0,0,0)"/></linearGradient><path d=" M 8.318 9.952 Q 0.731 0.453 1.093 0.253 C 1.454 0.053 14.994 9.612 16.347 11.664 C 16.842 12.415 17.471 13.774 17.15 15.087 C 16.828 16.399 13.396 23.144 13.135 24.215 C 12.374 27.351 14.537 29.685 17.15 31.061 C 19.762 32.438 24.902 32.245 26.784 33.914 C 28.665 35.583 27.571 36.855 26.784 36.767 C 24.373 36.495 21.195 42.14 20.361 43.613 C 19.019 45.983 11.683 42.586 7.515 39.049 Q 2.005 34.371 1.093 31.061 C -2.053 19.843 6.506 16.517 9.121 12.805 C 9.789 11.857 9.011 11.007 8.318 9.952 Z " fill="url(#_lgradient_6)" vector-effect="non-scaling-stroke" stroke-width="0.5" stroke="rgb(23,19,26)" stroke-linejoin="miter" stroke-linecap="square" stroke-miterlimit="3"/><linearGradient id="_lgradient_7" x1="0.2833217980217906" y1="0.6316550925925929" x2="1.5708262662050103" y2="1.334780092592593" gradientTransform="matrix(-27.416,0,0,44.152,87.945,0.25)" gradientUnits="userSpaceOnUse"><stop offset="0%" stop-opacity="1" style="stop-color:rgb(170,3,3)"/><stop offset="100%" stop-opacity="1" style="stop-color:rgb(0,0,0)"/></linearGradient><path d=" M 80.034 9.952 Q 87.621 0.453 87.26 0.253 C 86.899 0.053 73.359 9.612 72.006 11.664 C 71.51 12.415 70.882 13.774 71.203 15.087 C 71.524 16.399 74.957 23.144 75.217 24.215 C 75.979 27.351 73.815 29.685 71.203 31.061 C 68.59 32.438 63.45 32.245 61.569 33.914 C 59.687 35.583 60.781 36.855 61.569 36.767 C 63.979 36.495 67.158 42.14 67.991 43.613 C 69.334 45.983 76.67 42.586 80.837 39.049 Q 86.348 34.371 87.26 31.061 C 90.405 19.843 81.846 16.517 79.231 12.805 C 78.564 11.857 79.341 11.007 80.034 9.952 Z " fill="url(#_lgradient_7)" vector-effect="non-scaling-stroke" stroke-width="0.5" stroke="rgb(23,19,26)" stroke-linejoin="miter" stroke-linecap="square" stroke-miterlimit="3"/></g></g></g></svg>